<mxfile host="app.diagrams.net" agent="Mozilla/5.0 (X11; Linux x86_64) AppleWebKit/537.36 (KHTML, like Gecko) Chrome/130.0.0.0 Safari/537.36" version="25.0.1">
  <diagram id="dNZ_Tn0Hp9u-YdFpUYYD" name="Страница — 1">
    <mxGraphModel dx="2354" dy="1526" grid="1" gridSize="10" guides="1" tooltips="1" connect="1" arrows="1" fold="1" page="0" pageScale="1" pageWidth="827" pageHeight="1169" math="0" shadow="0">
      <root>
        <mxCell id="0" />
        <mxCell id="1" parent="0" />
        <mxCell id="vmZU5TFpBcDoDS9-gK7y-10" style="edgeStyle=orthogonalEdgeStyle;rounded=1;orthogonalLoop=1;jettySize=auto;html=1;exitX=0.5;exitY=0;exitDx=0;exitDy=0;exitPerimeter=0;entryX=0;entryY=0.5;entryDx=0;entryDy=0;curved=0;" parent="1" source="vmZU5TFpBcDoDS9-gK7y-2" target="vmZU5TFpBcDoDS9-gK7y-6" edge="1">
          <mxGeometry relative="1" as="geometry" />
        </mxCell>
        <mxCell id="vmZU5TFpBcDoDS9-gK7y-12" value="&lt;span style=&quot;font-size: 14px;&quot;&gt;Жалобы&lt;/span&gt;" style="edgeLabel;html=1;align=center;verticalAlign=middle;resizable=0;points=[];rounded=1;" parent="vmZU5TFpBcDoDS9-gK7y-10" vertex="1" connectable="0">
          <mxGeometry x="-0.34" y="2" relative="1" as="geometry">
            <mxPoint as="offset" />
          </mxGeometry>
        </mxCell>
        <mxCell id="vmZU5TFpBcDoDS9-gK7y-2" value="&lt;font style=&quot;font-size: 14px;&quot;&gt;Клиент&lt;/font&gt;" style="shape=umlActor;verticalLabelPosition=bottom;verticalAlign=top;html=1;outlineConnect=0;strokeWidth=2;rounded=1;" parent="1" vertex="1">
          <mxGeometry x="50" y="180" width="70" height="120" as="geometry" />
        </mxCell>
        <mxCell id="vmZU5TFpBcDoDS9-gK7y-20" style="edgeStyle=orthogonalEdgeStyle;rounded=1;orthogonalLoop=1;jettySize=auto;html=1;exitX=0.995;exitY=0.109;exitDx=0;exitDy=0;exitPerimeter=0;entryX=0.5;entryY=0;entryDx=0;entryDy=0;" parent="1" source="vmZU5TFpBcDoDS9-gK7y-5" target="vmZU5TFpBcDoDS9-gK7y-17" edge="1">
          <mxGeometry relative="1" as="geometry">
            <Array as="points">
              <mxPoint x="509" y="-30" />
              <mxPoint x="1135" y="-30" />
            </Array>
            <mxPoint x="830" y="-60" as="sourcePoint" />
          </mxGeometry>
        </mxCell>
        <mxCell id="vmZU5TFpBcDoDS9-gK7y-22" value="&lt;span style=&quot;font-size: 14px;&quot;&gt;Выбор подхода&lt;/span&gt;" style="edgeLabel;html=1;align=center;verticalAlign=middle;resizable=0;points=[];rounded=1;" parent="vmZU5TFpBcDoDS9-gK7y-20" vertex="1" connectable="0">
          <mxGeometry x="-0.0909" y="1" relative="1" as="geometry">
            <mxPoint x="-54" as="offset" />
          </mxGeometry>
        </mxCell>
        <mxCell id="vmZU5TFpBcDoDS9-gK7y-5" value="&lt;font style=&quot;font-size: 15px;&quot;&gt;Получение информации о проблеме&lt;/font&gt;" style="swimlane;fontStyle=0;childLayout=stackLayout;horizontal=1;startSize=50;horizontalStack=0;resizeParent=1;resizeParentMax=0;resizeLast=0;collapsible=1;marginBottom=0;whiteSpace=wrap;html=1;rounded=1;" parent="1" vertex="1">
          <mxGeometry x="320" y="-80" width="190" height="220" as="geometry">
            <mxRectangle x="240" y="60" width="210" height="50" as="alternateBounds" />
          </mxGeometry>
        </mxCell>
        <mxCell id="vmZU5TFpBcDoDS9-gK7y-6" value="&lt;font style=&quot;font-size: 15px;&quot;&gt;И: Служба поддержки&lt;/font&gt;" style="text;strokeColor=default;fillColor=none;align=left;verticalAlign=middle;spacingLeft=4;spacingRight=4;overflow=hidden;points=[[0,0.5],[1,0.5]];portConstraint=eastwest;rotatable=0;whiteSpace=wrap;html=1;rounded=1;" parent="vmZU5TFpBcDoDS9-gK7y-5" vertex="1">
          <mxGeometry y="50" width="190" height="70" as="geometry" />
        </mxCell>
        <mxCell id="vmZU5TFpBcDoDS9-gK7y-7" value="&lt;p&gt;&lt;font style=&quot;font-size: 15px;&quot; face=&quot;Helvetica&quot;&gt;СД: текстовые редакторы, сайт компании&lt;/font&gt;&lt;/p&gt;" style="text;strokeColor=default;fillColor=none;align=left;verticalAlign=middle;spacingLeft=4;spacingRight=4;overflow=hidden;points=[[0,0.5],[1,0.5]];portConstraint=eastwest;rotatable=0;whiteSpace=wrap;html=1;rounded=1;" parent="vmZU5TFpBcDoDS9-gK7y-5" vertex="1">
          <mxGeometry y="120" width="190" height="100" as="geometry" />
        </mxCell>
        <mxCell id="vmZU5TFpBcDoDS9-gK7y-13" style="edgeStyle=orthogonalEdgeStyle;rounded=1;orthogonalLoop=1;jettySize=auto;html=1;entryX=1;entryY=0.3333333333333333;entryDx=0;entryDy=0;entryPerimeter=0;exitX=-0.011;exitY=0.159;exitDx=0;exitDy=0;exitPerimeter=0;" parent="1" source="vmZU5TFpBcDoDS9-gK7y-28" target="vmZU5TFpBcDoDS9-gK7y-2" edge="1">
          <mxGeometry relative="1" as="geometry">
            <mxPoint x="760" y="20" as="sourcePoint" />
            <Array as="points">
              <mxPoint x="300" y="395" />
              <mxPoint x="300" y="220" />
            </Array>
          </mxGeometry>
        </mxCell>
        <mxCell id="vmZU5TFpBcDoDS9-gK7y-14" value="&lt;span style=&quot;font-size: 14px;&quot;&gt;Ответы на жалобы&lt;/span&gt;" style="edgeLabel;html=1;align=center;verticalAlign=middle;resizable=0;points=[];rounded=1;" parent="vmZU5TFpBcDoDS9-gK7y-13" vertex="1" connectable="0">
          <mxGeometry x="0.4952" y="1" relative="1" as="geometry">
            <mxPoint x="55" y="79" as="offset" />
          </mxGeometry>
        </mxCell>
        <mxCell id="vmZU5TFpBcDoDS9-gK7y-15" style="edgeStyle=orthogonalEdgeStyle;rounded=1;orthogonalLoop=1;jettySize=auto;html=1;entryX=0;entryY=0.143;entryDx=0;entryDy=0;entryPerimeter=0;" parent="1" source="vmZU5TFpBcDoDS9-gK7y-6" target="vmZU5TFpBcDoDS9-gK7y-18" edge="1">
          <mxGeometry relative="1" as="geometry">
            <mxPoint x="760" y="-60" as="targetPoint" />
            <Array as="points">
              <mxPoint x="620" y="5" />
              <mxPoint x="620" y="140" />
            </Array>
          </mxGeometry>
        </mxCell>
        <mxCell id="vmZU5TFpBcDoDS9-gK7y-16" value="&lt;span style=&quot;font-size: 14px;&quot;&gt;Полная информация о&lt;/span&gt;&lt;div&gt;&lt;span style=&quot;font-size: 14px;&quot;&gt;проблеме клиента&lt;/span&gt;&lt;/div&gt;" style="edgeLabel;html=1;align=center;verticalAlign=middle;resizable=0;points=[];rounded=1;" parent="vmZU5TFpBcDoDS9-gK7y-15" vertex="1" connectable="0">
          <mxGeometry x="0.0441" y="2" relative="1" as="geometry">
            <mxPoint x="38" y="2" as="offset" />
          </mxGeometry>
        </mxCell>
        <mxCell id="vmZU5TFpBcDoDS9-gK7y-17" value="&lt;font style=&quot;font-size: 15px;&quot;&gt;Выбор подхода решения проблем&lt;/font&gt;" style="swimlane;fontStyle=0;childLayout=stackLayout;horizontal=1;startSize=50;horizontalStack=0;resizeParent=1;resizeParentMax=0;resizeLast=0;collapsible=1;marginBottom=0;whiteSpace=wrap;html=1;rounded=1;" parent="1" vertex="1">
          <mxGeometry x="1040" y="80" width="190" height="220" as="geometry">
            <mxRectangle x="240" y="60" width="210" height="50" as="alternateBounds" />
          </mxGeometry>
        </mxCell>
        <mxCell id="vmZU5TFpBcDoDS9-gK7y-18" value="&lt;font style=&quot;font-size: 15px;&quot;&gt;И: Служба поддержки, разработчики&lt;/font&gt;" style="text;strokeColor=default;fillColor=none;align=left;verticalAlign=middle;spacingLeft=4;spacingRight=4;overflow=hidden;points=[[0,0.5],[1,0.5]];portConstraint=eastwest;rotatable=0;whiteSpace=wrap;html=1;rounded=1;" parent="vmZU5TFpBcDoDS9-gK7y-17" vertex="1">
          <mxGeometry y="50" width="190" height="70" as="geometry" />
        </mxCell>
        <mxCell id="vmZU5TFpBcDoDS9-gK7y-19" value="&lt;p&gt;&lt;font style=&quot;font-size: 15px;&quot; face=&quot;Helvetica&quot;&gt;СД: методы и системы анализа, текстовые редакторы, сайт компании&lt;/font&gt;&lt;/p&gt;" style="text;strokeColor=default;fillColor=none;align=left;verticalAlign=middle;spacingLeft=4;spacingRight=4;overflow=hidden;points=[[0,0.5],[1,0.5]];portConstraint=eastwest;rotatable=0;whiteSpace=wrap;html=1;rounded=1;" parent="vmZU5TFpBcDoDS9-gK7y-17" vertex="1">
          <mxGeometry y="120" width="190" height="100" as="geometry" />
        </mxCell>
        <mxCell id="vmZU5TFpBcDoDS9-gK7y-26" style="edgeStyle=orthogonalEdgeStyle;rounded=1;orthogonalLoop=1;jettySize=auto;html=1;entryX=0.993;entryY=0.184;entryDx=0;entryDy=0;entryPerimeter=0;" parent="1" source="vmZU5TFpBcDoDS9-gK7y-18" target="vmZU5TFpBcDoDS9-gK7y-28" edge="1">
          <mxGeometry relative="1" as="geometry">
            <Array as="points">
              <mxPoint x="980" y="165" />
              <mxPoint x="980" y="400" />
              <mxPoint x="669" y="400" />
            </Array>
            <mxPoint x="950" y="400" as="targetPoint" />
          </mxGeometry>
        </mxCell>
        <mxCell id="vmZU5TFpBcDoDS9-gK7y-27" value="&lt;span style=&quot;font-size: 14px;&quot;&gt;Сведения&lt;/span&gt;&lt;div&gt;&lt;span style=&quot;font-size: 14px;&quot;&gt;о проблеме и&lt;/span&gt;&lt;/div&gt;&lt;div&gt;&lt;span style=&quot;font-size: 14px;&quot;&gt;выбранном подходе&lt;/span&gt;&lt;/div&gt;" style="edgeLabel;html=1;align=center;verticalAlign=middle;resizable=0;points=[];rounded=1;" parent="vmZU5TFpBcDoDS9-gK7y-26" vertex="1" connectable="0">
          <mxGeometry x="-0.0954" y="-2" relative="1" as="geometry">
            <mxPoint x="-118" y="22" as="offset" />
          </mxGeometry>
        </mxCell>
        <mxCell id="vmZU5TFpBcDoDS9-gK7y-28" value="&lt;font style=&quot;font-size: 15px;&quot;&gt;Решение проблемы&lt;/font&gt;" style="swimlane;fontStyle=0;childLayout=stackLayout;horizontal=1;startSize=50;horizontalStack=0;resizeParent=1;resizeParentMax=0;resizeLast=0;collapsible=1;marginBottom=0;whiteSpace=wrap;html=1;rounded=1;" parent="1" vertex="1">
          <mxGeometry x="480" y="360" width="190" height="220" as="geometry">
            <mxRectangle x="240" y="60" width="210" height="50" as="alternateBounds" />
          </mxGeometry>
        </mxCell>
        <mxCell id="vmZU5TFpBcDoDS9-gK7y-29" value="&lt;font style=&quot;font-size: 15px;&quot;&gt;И: Служба поддержки, разработчики&lt;/font&gt;" style="text;strokeColor=default;fillColor=none;align=left;verticalAlign=middle;spacingLeft=4;spacingRight=4;overflow=hidden;points=[[0,0.5],[1,0.5]];portConstraint=eastwest;rotatable=0;whiteSpace=wrap;html=1;rounded=1;" parent="vmZU5TFpBcDoDS9-gK7y-28" vertex="1">
          <mxGeometry y="50" width="190" height="70" as="geometry" />
        </mxCell>
        <mxCell id="AsYzKsAsE3puXHubD3pG-1" style="edgeStyle=orthogonalEdgeStyle;rounded=1;orthogonalLoop=1;jettySize=auto;html=1;" edge="1" parent="vmZU5TFpBcDoDS9-gK7y-28" source="vmZU5TFpBcDoDS9-gK7y-30">
          <mxGeometry relative="1" as="geometry">
            <mxPoint x="430" y="170" as="targetPoint" />
          </mxGeometry>
        </mxCell>
        <mxCell id="AsYzKsAsE3puXHubD3pG-3" value="&lt;div&gt;&lt;font style=&quot;font-size: 14px;&quot;&gt;Запрос на обновление ПО&lt;/font&gt;&lt;/div&gt;&lt;div&gt;&lt;font size=&quot;3&quot;&gt;и/или оборудования&lt;/font&gt;&lt;/div&gt;" style="edgeLabel;html=1;align=center;verticalAlign=middle;resizable=0;points=[];rounded=1;" vertex="1" connectable="0" parent="AsYzKsAsE3puXHubD3pG-1">
          <mxGeometry x="-0.2257" y="2" relative="1" as="geometry">
            <mxPoint x="27" y="2" as="offset" />
          </mxGeometry>
        </mxCell>
        <mxCell id="vmZU5TFpBcDoDS9-gK7y-30" value="&lt;p&gt;&lt;font style=&quot;font-size: 15px;&quot; face=&quot;Helvetica&quot;&gt;СД:&amp;nbsp;&lt;/font&gt;&lt;span style=&quot;background-color: rgb(251, 251, 251); font-size: 15px;&quot;&gt;ПО,&amp;nbsp;&lt;/span&gt;&lt;span style=&quot;font-size: 15px; background-color: initial;&quot;&gt;текстовые редакторы, сайт компании&lt;/span&gt;&lt;/p&gt;" style="text;strokeColor=default;fillColor=none;align=left;verticalAlign=middle;spacingLeft=4;spacingRight=4;overflow=hidden;points=[[0,0.5],[1,0.5]];portConstraint=eastwest;rotatable=0;whiteSpace=wrap;html=1;rounded=1;" parent="vmZU5TFpBcDoDS9-gK7y-28" vertex="1">
          <mxGeometry y="120" width="190" height="100" as="geometry" />
        </mxCell>
        <mxCell id="vmZU5TFpBcDoDS9-gK7y-32" value="&lt;span style=&quot;font-size: 15px; text-align: left; text-wrap-mode: wrap; background-color: rgb(251, 251, 251);&quot;&gt;АСУТ&lt;/span&gt;" style="shape=umlActor;verticalLabelPosition=bottom;verticalAlign=top;html=1;outlineConnect=0;strokeWidth=2;rounded=1;" parent="1" vertex="1">
          <mxGeometry x="50" y="400" width="70" height="120" as="geometry" />
        </mxCell>
        <mxCell id="vmZU5TFpBcDoDS9-gK7y-33" style="edgeStyle=orthogonalEdgeStyle;rounded=1;orthogonalLoop=1;jettySize=auto;html=1;entryX=0;entryY=0.091;entryDx=0;entryDy=0;entryPerimeter=0;" parent="1" source="vmZU5TFpBcDoDS9-gK7y-32" target="vmZU5TFpBcDoDS9-gK7y-5" edge="1">
          <mxGeometry relative="1" as="geometry">
            <Array as="points">
              <mxPoint y="460" />
              <mxPoint y="-60" />
            </Array>
          </mxGeometry>
        </mxCell>
        <mxCell id="vmZU5TFpBcDoDS9-gK7y-34" value="&lt;span style=&quot;font-size: 14px;&quot;&gt;Список ошибок&lt;/span&gt;" style="edgeLabel;html=1;align=center;verticalAlign=middle;resizable=0;points=[];rounded=1;" parent="vmZU5TFpBcDoDS9-gK7y-33" vertex="1" connectable="0">
          <mxGeometry x="0.4132" relative="1" as="geometry">
            <mxPoint x="41" as="offset" />
          </mxGeometry>
        </mxCell>
        <mxCell id="vmZU5TFpBcDoDS9-gK7y-35" style="edgeStyle=orthogonalEdgeStyle;rounded=1;orthogonalLoop=1;jettySize=auto;html=1;entryX=1;entryY=1;entryDx=0;entryDy=0;entryPerimeter=0;exitX=-0.021;exitY=0.711;exitDx=0;exitDy=0;exitPerimeter=0;" parent="1" source="vmZU5TFpBcDoDS9-gK7y-30" target="vmZU5TFpBcDoDS9-gK7y-32" edge="1">
          <mxGeometry relative="1" as="geometry">
            <Array as="points">
              <mxPoint x="280" y="551" />
              <mxPoint x="280" y="520" />
            </Array>
          </mxGeometry>
        </mxCell>
        <mxCell id="vmZU5TFpBcDoDS9-gK7y-36" value="&lt;span style=&quot;font-size: 14px;&quot;&gt;Исправленная&lt;/span&gt;&lt;div&gt;&lt;span style=&quot;font-size: 14px;&quot;&gt;система&lt;/span&gt;&lt;/div&gt;" style="edgeLabel;html=1;align=center;verticalAlign=middle;resizable=0;points=[];rounded=1;" parent="vmZU5TFpBcDoDS9-gK7y-35" vertex="1" connectable="0">
          <mxGeometry x="-0.2275" y="-4" relative="1" as="geometry">
            <mxPoint x="54" y="3" as="offset" />
          </mxGeometry>
        </mxCell>
        <mxCell id="AsYzKsAsE3puXHubD3pG-2" value="&lt;div style=&quot;text-align: left;&quot;&gt;&lt;span style=&quot;font-size: 15px; text-wrap-mode: wrap; background-color: rgb(251, 251, 251);&quot;&gt;Технический отдел&lt;/span&gt;&lt;/div&gt;" style="shape=umlActor;verticalLabelPosition=bottom;verticalAlign=top;html=1;outlineConnect=0;strokeWidth=2;rounded=1;" vertex="1" parent="1">
          <mxGeometry x="910" y="470" width="70" height="120" as="geometry" />
        </mxCell>
      </root>
    </mxGraphModel>
  </diagram>
</mxfile>
